<svg xmlns="http://www.w3.org/2000/svg" viewBox="0 0 512 512" fill="none">
  <defs>
    <linearGradient id="atlasGradient" x1="0%" y1="0%" x2="100%" y2="100%">
      <stop offset="0%" style="stop-color:#8b5cf6;stop-opacity:1" />
      <stop offset="50%" style="stop-color:#6366f1;stop-opacity:1" />
      <stop offset="100%" style="stop-color:#3b82f6;stop-opacity:1" />
    </linearGradient>
    <linearGradient id="atlasGlow" x1="0%" y1="0%" x2="100%" y2="100%">
      <stop offset="0%" style="stop-color:#c4b5fd;stop-opacity:1" />
      <stop offset="100%" style="stop-color:#818cf8;stop-opacity:1" />
    </linearGradient>
    <filter id="glow" x="-20%" y="-20%" width="140%" height="140%">
      <feGaussianBlur stdDeviation="4" result="coloredBlur"/>
      <feMerge>
        <feMergeNode in="coloredBlur"/>
        <feMergeNode in="SourceGraphic"/>
      </feMerge>
    </filter>
  </defs>
  
  <g filter="url(#glow)">
    <path d="M130 180 Q80 120 140 80 Q200 40 260 80" 
          stroke="url(#atlasGradient)" stroke-width="24" stroke-linecap="round" fill="none"/>
    <path d="M382 180 Q432 120 372 80 Q312 40 252 80" 
          stroke="url(#atlasGradient)" stroke-width="24" stroke-linecap="round" fill="none"/>
    <path d="M130 332 Q80 392 140 432 Q200 472 260 432" 
          stroke="url(#atlasGradient)" stroke-width="24" stroke-linecap="round" fill="none"/>
    <path d="M382 332 Q432 392 372 432 Q312 472 252 432" 
          stroke="url(#atlasGradient)" stroke-width="24" stroke-linecap="round" fill="none"/>
  </g>
  
  <g filter="url(#glow)">
    <path d="M256 256 
             C256 220 220 190 180 190 
             C140 190 110 220 110 256 
             C110 292 140 322 180 322 
             C220 322 256 292 256 256 
             C256 220 292 190 332 190 
             C372 190 402 220 402 256 
             C402 292 372 322 332 322 
             C292 322 256 292 256 256Z" 
          stroke="url(#atlasGlow)" stroke-width="28" stroke-linecap="round" fill="none"/>
  </g>
</svg>
