<svg xmlns="http://www.w3.org/2000/svg" viewBox="0 0 192 192" fill="none">
  <defs>
    <linearGradient id="atlasGradient" x1="0%" y1="0%" x2="100%" y2="100%">
      <stop offset="0%" style="stop-color:#8b5cf6;stop-opacity:1" />
      <stop offset="50%" style="stop-color:#6366f1;stop-opacity:1" />
      <stop offset="100%" style="stop-color:#3b82f6;stop-opacity:1" />
    </linearGradient>
    <linearGradient id="atlasGlow" x1="0%" y1="0%" x2="100%" y2="100%">
      <stop offset="0%" style="stop-color:#c4b5fd;stop-opacity:1" />
      <stop offset="100%" style="stop-color:#818cf8;stop-opacity:1" />
    </linearGradient>
  </defs>
  
  <!-- Outer swirling arcs -->
  <g>
    <path d="M49 68 Q30 45 53 30 Q75 15 98 30" 
          stroke="url(#atlasGradient)" stroke-width="9" stroke-linecap="round" fill="none"/>
    <path d="M143 68 Q162 45 139 30 Q117 15 94 30" 
          stroke="url(#atlasGradient)" stroke-width="9" stroke-linecap="round" fill="none"/>
    <path d="M49 124 Q30 147 53 162 Q75 177 98 162" 
          stroke="url(#atlasGradient)" stroke-width="9" stroke-linecap="round" fill="none"/>
    <path d="M143 124 Q162 147 139 162 Q117 177 94 162" 
          stroke="url(#atlasGradient)" stroke-width="9" stroke-linecap="round" fill="none"/>
  </g>
  
  <!-- Infinity symbol -->
  <path d="M96 96 
           C96 82 82 71 68 71 
           C53 71 41 82 41 96 
           C41 110 53 121 68 121 
           C82 121 96 110 96 96 
           C96 82 110 71 124 71 
           C139 71 151 82 151 96 
           C151 110 139 121 124 121 
           C110 121 96 110 96 96Z" 
        stroke="url(#atlasGlow)" stroke-width="11" stroke-linecap="round" fill="none"/>
</svg>
